# xmcd
#
# Track frame offsets:
#	150
#	15553
#	30916
#	45715
#
# Disc length: 852 seconds
# Revision: 0
# Processed by: cddbd v1.5.2PL0 Copyright (c) Steve Scherf et al.
# Submitted via: dBpowerAMP V12.0
#
DISCID=21035204
DTITLE=Dj Ma-check and Nico Muolo ft. Jesse D'Lane - Su Le Mani
DYEAR=2010
DGENRE=Club
TTITLE0=Su Le Mani
TTITLE1=Su Le Mani Instrumental
TTITLE2=Su Le Mani Acapella
TTITLE3=Su Le Mani MT Project RMX
EXTD=
EXTT0=
EXTT1=
EXTT2=
EXTT3=
PLAYORDER=
